PathFileType	4	(X/Y/Z)	C:/Users/beibeiliu/ov580/test_trc/User1\sequence.9_training_dense_left.trc
DataRate	CameraRate	NumFrames	NumMarkers	Units	OrigDataRate	OrigDataStartFrame	OrigNumFrames
120	120	20	19	mm	120	118	314
Frame#	Time	ThumbCMC			ThumbMCP			ThumbIP			ThumbTip			IndexMCP			IndexPIP			IndexTip			MiddleMCP			MiddlePIP			MiddleTip			RingMCP			RingPIP			RingTip			PinkyMCP			PinkyPIP			PinkyTip			BackHand1			BackHand2			BackHand3	
		X0	Y0	Z0	X1	Y1	Z1	X2	Y2	Z2	X3	Y3	Z3	X4	Y4	Z4	X5	Y5	Z5	X6	Y6	Z6	X7	Y7	Z7	X8	Y8	Z8	X9	Y9	Z9	X10	Y10	Z10	X11	Y11	Z11	X12	Y12	Z12	X13	Y13	Z13	X14	Y14	Z14	X15	Y15	Z15	X16	Y16	Z16	X17	Y17	Z17	X18	Y18	Z18	
117	0.975	-185.602	146.425	5.71093	-172.064	166.151	-16.196	-168.471	180.404	-32.9133	-160.399	194.274	-46.9831	-237.522	178.125	-62.8831	-247.224	188.827	-84.6004	-262.152	194.831	-106.36	-265.053	168.762	-57.8884	-279.272	178.04	-81.473	-294.067	184.6	-106.592	-277.549	149.92	-53.3333	-292.408	157.681	-72.1195	-309.15	161.123	-96.7004	-284.191	117.165	-34.9281	-302.499	118.554	-48.1807	-322.984	127.558	-61.8415	-256.26	138.106	-7.29321	-242.865	128.257	26.9081	-226.568	152.518	4.0348	
118	0.983333	-184.752	139.459	3.83652	-167.555	155.643	-17.6125	-161.624	170.493	-35.3734	-144.455	183.489	-45.8627	-224.607	179.616	-62.4279	-234.755	191.402	-84.8911	-247.944	198.508	-104.622	-253.762	174.612	-58.517	-264.449	187.482	-81.1411	-280.98	197.23	-107.781	-276.632	156.652	-53.9112	-288.719	166.578	-71.1565	-302.875	175.528	-95.9775	-283.378	126.459	-35.0098	-300.004	130.555	-45.1809	-318.38	143.738	-60.2664	-254.011	140.424	-3.78686	-244.297	130.439	27.4904	-216.449	151.418	6.12093	
119	0.991667	-181.853	133.526	4.24946	-161.106	146.991	-15.3476	-151.366	162.059	-34.1722	-137.521	171.077	-48.5486	-212.436	176.538	-59.7225	-220.789	190.426	-81.2917	-233.06	202.912	-104.237	-246.847	179.137	-58.0443	-255.3	195.36	-82.3639	-267.189	208.897	-107.534	-267.346	164.715	-51.4902	-276.732	178.786	-71.4528	-290.56	186.818	-91.5163	-280.594	136.389	-35.6881	-297.487	142.408	-46.1158	-312.402	158.185	-61.8753	-250.672	146.411	-6.29038	-244.108	133.925	25.784	-215.064	150.215	7.83135	
120	1	-176.374	126.919	8.23137	-161.261	133.36	-12.8759	-148.008	148.049	-33.4059	-133.464	154.608	-45.825	-206.426	176.931	-59.9822	-211.693	188.787	-78.8279	-217.948	203.986	-99.6375	-236.614	178.89	-53.9659	-241.739	198.563	-79.1962	-252.294	212.294	-101.866	-255.247	167.565	-47.2558	-265.627	184.092	-67.0965	-279.322	199.168	-90.1727	-275.579	145.649	-36.8422	-290.762	156.17	-48.285	-302.805	169.068	-56.3786	-245.469	146.123	-1.81208	-240.844	134.743	27.4356	-206.599	150.054	4.47246	
121	1.00833	-173.3	119.681	8.79998	-156.972	122.591	-10.6919	-142.529	136.656	-30.7334	-125.66	144.912	-48.4732	-198.785	173.079	-56.7954	-201.374	188.191	-75.314	-209.025	206.349	-98.3781	-226.03	183.344	-54.9063	-225.586	199.357	-73.3222	-237.288	218.09	-95.5894	-250.853	171.422	-45.5989	-258.093	191.174	-64.2334	-264.867	206.774	-84.8291	-270.1	149.066	-31.6594	-283.63	162.04	-42.4945	-295.141	179.285	-54.6546	-238.415	148.538	-4.53253	-237.008	135.023	30.0235	-202.597	146.089	9.02202	
122	1.01667	-176.442	110.216	11.6779	-155.239	116.026	-10.0928	-136.154	127.114	-30.386	-122.672	132.073	-46.5198	-187.713	171.156	-53.1787	-188.34	185.7	-69.5137	-190.066	202.888	-89.2268	-214.32	182.23	-49.8429	-212.604	201.439	-69.6418	-215.503	223.563	-91.8903	-240.304	176.525	-43.7812	-243.896	197.753	-60.186	-248.546	212.54	-78.7963	-265.674	157.508	-32.3162	-273.262	169.021	-41.1746	-280.11	189.803	-54.7532	-235.159	149.753	-3.7202	-232.572	136.93	31.3866	-196.134	140.34	10.1767	
123	1.025	-170.312	104.808	12.1906	-150.496	109.043	-8.83452	-136.28	118.308	-28.5722	-119.541	118.557	-43.2532	-175.741	163.632	-47.2249	-176.852	186.383	-65.3022	-176.001	205.136	-85.8136	-201.661	180.007	-45.9622	-202.302	201.846	-63.6108	-198.927	223.811	-82.859	-226.079	173.965	-38.7907	-229.086	199.195	-55.9703	-229.486	218.369	-75.0214	-253.727	157.186	-29.2679	-261.904	175.273	-40.8463	-269.481	195.313	-46.8394	-228.401	146.379	2.20918	-225.395	135.395	30.097	-194.83	135.746	14.5772	
124	1.03333	-171.452	98.557	13.8171	-152.162	100.676	-6.289	-131.372	110.152	-25.3078	-118.739	111.11	-41.3659	-172.273	159.707	-42.3384	-170.059	180.705	-57.6123	-167.394	202.159	-75.9045	-191.874	176.146	-40.4899	-190.695	201.47	-57.3809	-186.226	223.926	-73.6296	-219.945	174.316	-35.1466	-215.841	196.852	-49.14	-212.825	219.843	-68.9929	-249.312	158.436	-26.7155	-253.794	178.643	-38.1869	-256.916	201.695	-44.3417	-219.329	146.311	1.39346	-224.359	132.426	34.8779	-190.527	128.967	15.8289	
125	1.04167	-169.637	93.4976	16.6172	-147.893	92.2042	-0.999932	-129.734	101.216	-20.4422	-115.463	105.009	-38.0313	-164.574	154.228	-37.2462	-158.523	176.298	-51.234	-157.239	200.156	-68.0484	-184.907	176.858	-37.7834	-181.666	199.214	-51.2832	-177.442	225.069	-66.2515	-213.109	174.672	-32.071	-204.338	199.673	-46.9561	-205.332	220.847	-60.3377	-242.198	158.611	-25.1875	-244.984	179.503	-33.7882	-247.924	201.599	-38.8957	-218.33	144.82	3.42059	-220.488	131.623	33.2238	-186.781	126.071	16.9179	
126	1.05	-167.088	88.7695	18.1158	-147.535	89.1185	1.42604	-124.311	99.7956	-18.6466	-110.809	101.924	-35.1973	-157.171	155.37	-34.6437	-151.362	174.545	-46.3676	-150.091	200.806	-62.2564	-182.386	170.424	-30.624	-171.926	192.792	-43.4024	-166.789	219.681	-57.2992	-206.172	176.206	-30.1245	-199.912	196.46	-41.0988	-196.31	217.244	-53.3778	-237.822	158.055	-21.4463	-236.534	175.429	-29.6519	-239.973	201.075	-36.0707	-212.012	144.061	4.68165	-219.209	124.757	36.4392	-184.49	126.214	18.281	
127	1.05833	-164.677	85.6356	21.7087	-140.278	83.9865	4.62389	-124.705	95.3852	-15.1412	-103.79	100.059	-32.8528	-154.849	152.251	-29.9921	-146.036	170.939	-40.7334	-142.242	197.953	-54.7979	-172.11	170.359	-28.1196	-166.395	193.605	-39.49	-161.148	221.301	-51.3048	-199.349	171.562	-25.8614	-195.523	193.699	-35.6075	-186.114	217.986	-49.0586	-232.697	156.257	-19.183	-235.959	174.876	-24.8365	-232.983	200.323	-32.1862	-208.301	137.039	10.181	-214.266	126.075	36.5111	-181.729	123.541	20.5187	
128	1.06667	-162.897	82.4411	24.0038	-138.874	81.7844	6.22229	-120.583	93.007	-12.9992	-103.458	94.0881	-27.8536	-152.029	147.094	-24.8414	-141.917	170.544	-36.4987	-134.657	189.528	-48.176	-170.571	169.053	-24.9567	-160.716	191.204	-33.9147	-157.73	218.397	-45.8071	-195.821	170.885	-22.8663	-190.423	190.576	-30.6576	-182.559	216.453	-44.4164	-225.43	151.937	-17.3806	-230.839	174.407	-22.3345	-226.487	200.739	-29.672	-205.837	136.209	9.65871	-213.431	122.252	40.8769	-176.899	117.73	26.4204	
129	1.075	-159.336	80.2848	25.1665	-137.405	80.5438	6.20259	-116.506	92.7176	-12.199	-103.201	92.9562	-25.3275	-145.392	142.59	-21.8639	-135.534	169.523	-33.8076	-130.388	188.405	-44.1158	-170.149	165.205	-21.3611	-157.625	189.796	-31.8928	-152.924	216.725	-40.7595	-193.257	167.793	-21.0616	-187.355	190.684	-28.352	-180.581	213.819	-40.4141	-224.133	151.344	-14.6312	-224.499	172.178	-20.8588	-222.223	198.514	-24.5476	-202.532	134.071	12.3521	-208.465	119.695	41.6914	-172.449	115.757	25.5667	
130	1.08333	-156.641	81.6377	24.81	-132.322	82.2676	6.99605	-113.741	90.3466	-10.8586	-96.1879	91.8341	-24.267	-142.152	141.899	-20.7342	-135.01	168.263	-31.3112	-129.205	192.1	-43.8081	-163.547	164.121	-20.4939	-156.107	187.627	-29.5845	-149.758	214.126	-39.1758	-192.483	163.595	-17.482	-180.126	191.179	-28.3606	-176.134	215.182	-39.4383	-219.011	152.426	-16.0201	-221.026	170.596	-20.8673	-221.694	196.283	-23.5243	-200.348	136.938	11.093	-208.314	118.631	40.1818	-171.757	114.437	28.8639	
131	1.09167	-157.032	80.1628	25.2254	-132.804	81.0934	6.58641	-112.854	88.1135	-8.81289	-96.0558	91.3285	-25.3501	-140.92	145.015	-21.8925	-133.693	165.428	-30.4332	-130.928	190.261	-43.2118	-162.358	166.006	-20.1002	-154.346	188.654	-29.8404	-149.934	217.791	-39.1717	-189.618	165.136	-19.4289	-182.994	191.643	-27.4117	-179.309	213.085	-38.8621	-215.665	150.893	-16.767	-222.434	170.758	-21.1022	-223.089	198.009	-22.0478	-201.073	134.277	12.4692	-204.046	119.296	41.6033	-171.611	114.575	28.6455	
132	1.1	-154.314	82.2002	24.1705	-128.262	81.2348	6.4552	-110.116	91.151	-9.76699	-94.6794	91.1852	-23.6135	-142.609	145.373	-22.7918	-135.199	169.331	-32.1701	-128.629	190.727	-43.5197	-161.572	167.15	-22.2076	-155.682	190.621	-31.583	-148.973	219.747	-40.5779	-184.591	165.978	-21.2319	-181.772	192.564	-30.4109	-174.849	212.642	-40.7435	-215.563	151.722	-17.9713	-221.615	172.956	-23.568	-223.799	197.422	-25.7877	-196.852	134.115	8.97604	-203.822	117.063	43.1848	-166.353	117.956	24.3339	
133	1.10833	-150.224	82.7528	23.6373	-129.135	80.7377	8.1616	-111.702	90.8863	-10.8497	-90.9703	94.4533	-26.7503	-141.329	144.172	-23.8747	-135.804	168.542	-35.4753	-128.662	192.837	-47.3722	-163.239	165.907	-24.4096	-152.613	188.139	-35.4054	-151.467	216.228	-43.8884	-191.528	164.711	-21.3415	-181.383	188.506	-33.1887	-175.66	213.679	-45.8226	-220.44	151.429	-17.9073	-225.622	170.055	-23.3047	-223.703	193.049	-28.2313	-197.381	133.829	13.2262	-203.835	119.438	41.7385	-169.157	117.875	25.9792	
134	1.11667	-152.705	82.4373	23.9616	-129.697	85.9949	3.38349	-111.523	93.9432	-13.5471	-93.7852	94.7227	-28.3173	-143.074	145.582	-26.9706	-130.952	169.588	-40.5564	-132.52	191.121	-52.495	-161.693	165.6	-28.4525	-157.034	186.529	-39.2053	-148.344	215.755	-51.8311	-191.257	165.898	-25.6803	-182.217	189.069	-38.3858	-179.86	213.913	-51.135	-221.852	155.323	-20.2201	-223.788	172.727	-28.5328	-224.512	195.032	-32.5539	-197.924	136.211	6.62327	-200.352	123.6	37.8003	-166.129	120.382	22.9829	
135	1.125	-152.412	83.8506	25.2386	-128.812	84.4643	5.85352	-110.287	94.7122	-15.4543	-91.1033	94.3438	-28.9657	-142.778	149.397	-33.9589	-137.692	171.237	-47.5782	-135.36	192.765	-61.2754	-163.846	165.776	-33.5029	-156.724	185.454	-46.8921	-155.171	217.704	-60.5326	-187.142	166.597	-32.3808	-185.563	191.409	-44.6202	-179.349	210.873	-57.7777	-220.382	150.815	-23.327	-227.628	172.441	-31.7798	-228.93	193.745	-34.8063	-196.459	136.718	7.20441	-205.369	126.28	34.9641	-167.017	120.992	21.0995	
136	1.13333	-153.901	89.9165	20.1399	-127.706	89.1462	2.87063	-109.998	93.7249	-12.9814	-91.3281	96.45	-30.3434	-143.432	149.802	-38.4278	-140.208	169.742	-52.5422	-138.57	189.288	-67.869	-164.99	167.169	-37.6443	-158.163	187.645	-53.6222	-153.52	213.972	-70.1381	-192.498	165.97	-34.4318	-187.831	186.261	-48.2523	-184.948	210.664	-64.8552	-223.881	156.227	-27.6884	-231.816	169.955	-34.2901	-232.329	195.763	-41.276	-196.899	136.415	7.21337	-204.994	128.248	35.7017	-169.366	124.327	19.3102	
